<?xml version="1.0" standalone="no"?><!DOCTYPE svg PUBLIC "-//W3C//DTD SVG 1.1//EN" "http://www.w3.org/Graphics/SVG/1.1/DTD/svg11.dtd"><svg xmlns="http://www.w3.org/2000/svg" width="1000.0" height="1000.0">
<rect x="0.000000" y="0.000000" width="540.000000" height="280.000000" stroke="red" stroke-width="5.0" fill-opacity="0.0" />
<rect x="0.000000" y="0.000000" width="80.000000" height="120.000000" fill="green" stroke="black" stroke-width="5.0" />
<rect x="40.000000" y="160.000000" width="80.000000" height="120.000000" fill="green" stroke="black" stroke-width="5.0" />
<rect x="420.000000" y="160.000000" width="80.000000" height="120.000000" fill="green" stroke="black" stroke-width="5.0" />
<rect x="360.000000" y="0.000000" width="80.000000" height="120.000000" fill="green" stroke="black" stroke-width="5.0" />
<rect x="500.000000" y="0.000000" width="40.000000" height="120.000000" fill="green" stroke="black" stroke-width="5.0" />
<rect x="320.000000" y="0.000000" width="40.000000" height="120.000000" fill="gray" stroke="black" stroke-width="5.0" />
<rect x="120.000000" y="160.000000" width="40.000000" height="120.000000" fill="gray" stroke="black" stroke-width="5.0" />
<rect x="180.000000" y="160.000000" width="40.000000" height="120.000000" fill="gray" stroke="black" stroke-width="5.0" />
<rect x="220.000000" y="40.000000" width="80.000000" height="60.000000" fill="red" stroke="black" stroke-width="5.0" />
<rect x="80.000000" y="0.000000" width="80.000000" height="120.000000" fill="orange" stroke="black" stroke-width="5.0" />
<rect x="500.000000" y="160.000000" width="40.000000" height="120.000000" fill="orange" stroke="black" stroke-width="5.0" />
<rect x="380.000000" y="160.000000" width="40.000000" height="120.000000" fill="orange" stroke="black" stroke-width="5.0" />
<rect x="440.000000" y="0.000000" width="40.000000" height="120.000000" fill="orange" stroke="black" stroke-width="5.0" />
<rect x="0.000000" y="160.000000" width="40.000000" height="120.000000" fill="orange" stroke="black" stroke-width="5.0" />
<rect x="220.000000" y="100.000000" width="80.000000" height="100.000000" fill="brown" stroke="black" stroke-width="5.0" />
<rect x="220.000000" y="200.000000" width="140.000000" height="60.000000" fill="blue" stroke="black" stroke-width="5.0" />
<rect x="160.000000" y="0.000000" width="160.000000" height="40.000000" fill="blue" stroke="black" stroke-width="5.0" />
<rect x="480.000000" y="0.000000" width="20.000000" height="120.000000" fill="blue" stroke="black" stroke-width="5.0" />
</svg>
